<?xml version="1.0" encoding="utf-8"?>
<!-- Generator: Adobe Illustrator 27.5.0, SVG Export Plug-In . SVG Version: 6.00 Build 0)  -->
<svg version="1.1" xmlns="http://www.w3.org/2000/svg" xmlns:xlink="http://www.w3.org/1999/xlink" x="0px" y="0px"
	 viewBox="0 0 308.5 448.5" style="enable-background:new 0 0 308.5 448.5;" xml:space="preserve">
<style type="text/css">
	.st0{fill:#FFFFFF;}
</style>
<g id="Layer_2">
</g>
<g id="Layer_1">
	<g>
		<g>
			<path d="M287.1,76.7C259.8,29.8,211.4,1.1,157.7,0c-2.3,0-4.5,0-6.9,0C97.1,1.1,48.7,29.8,21.5,76.7
				c-27.9,48.1-28.7,105.7-2,154.3l111.2,203.6c0,0.2,0.2,0.2,0.2,0.3c4.9,8.5,13.6,13.6,23.5,13.6c9.9,0,18.6-5,23.5-13.6
				c0-0.2,0.2-0.2,0.2-0.3L289.1,231C315.6,182.5,315,124.7,287.1,76.7L287.1,76.7z M154.3,203.1c-34.8,0-63.1-28.3-63.1-63.1
				s28.3-63.1,63.1-63.1s63.1,28.3,63.1,63.1S189,203.1,154.3,203.1L154.3,203.1z"/>
		</g>
	</g>
	<circle class="st0" cx="154.3" cy="156" r="135"/>
	<g>
		<path d="M133.2,125.3c0.3,0.1,5,2.4,10.6,2.4c3,0,6.2-0.6,9.1-2.6c1.4-1,1.8-2.9,0.8-4.3c-1-1.4-2.9-1.8-4.3-0.8
			c-5.3,3.6-13.5-0.2-13.6-0.2c-1.5-0.7-3.4-0.1-4.1,1.5C131,122.7,131.6,124.6,133.2,125.3z"/>
		<path d="M177.9,125.3c0.3,0.1,5,2.4,10.6,2.4c3,0,6.2-0.6,9.1-2.6c1.4-1,1.8-2.9,0.8-4.3c-1-1.4-2.9-1.8-4.3-0.8
			c-5.3,3.6-13.5-0.2-13.6-0.2c-1.5-0.7-3.4-0.1-4.1,1.5C175.7,122.7,176.4,124.6,177.9,125.3z"/>
		<path d="M162.6,139.6c1.5,1,3.2,1.5,5,1.5c1.6,0,3.3-0.4,4.8-1.3c3.4-1.8,5.5-5.2,5.5-8.9c0-5.6-4.7-10.1-10.5-10.1
			c-1.7,0-3.1,1.4-3.1,3.1c0,1.7,1.4,3.1,3.1,3.1c2.4,0,4.3,1.8,4.3,3.9c0,1.3-0.9,2.7-2.3,3.4c-0.6,0.3-2.1,0.9-3.5,0
			c-1.4-0.9-3.4-0.5-4.3,0.9C160.8,136.7,161.2,138.6,162.6,139.6z"/>
		<path d="M240.9,247.5c0-0.9,0-1.7,0-2.6c0-6.9-1.4-12.2-4.3-15.7c-0.9-1.1-1.8-2-2.8-2.6l1.9-16.4v0c0.3-2.8-0.5-5.6-2.4-7.7
			c-1.7-2-4.2-3.1-6.8-3.1h-21.2v-26.9c0-0.2,0-0.3,0-0.5c0.1-2.9-1.3-5.6-3.6-7.3l-3.2-2.5c2.9-3.2,5.2-6.8,6.9-11
			c3.5-8.4,3.9-17.1,3.9-22.9V99.8c0.1-4.5,0.4-9.7-0.1-12.5c-5.6-31.6-33.8-51-68.5-51c-38.7,0-70.1,28.9-70.1,65.7
			c0,11.8,2.7,21.5,8,30c-0.2,1.1-0.4,2.2-0.4,3.4c-0.2,5.6,1.5,10.5,4.7,13.9c2.3,2.4,5.3,4,8.8,4.6l0,4.1c0,1.5,1.2,2.6,2.7,2.6
			h9.9c5.2,6.6,13.1,10.8,17.2,12.4c5.5,2.1,5.7,5.5,5.7,12.5c0,0.5,0,1,0,1.5c0,0.2,0,0.3,0,0.5c-0.2,0.1-0.3,0.2-0.4,0.3
			c-12.7,4.5-24.5,13.3-33.1,25c-4.6,6.1-8.1,12.9-10.6,20c-2.6,7.5-3.9,15.4-3.9,23.3v15.8c0,2.3,1.8,4.1,4.1,4.1
			c2.3,0,4.1-1.8,4.1-4.1v-15.8c0-30.6,21.7-53.8,43.1-60.8c0.2-0.1,0.4-0.2,0.6-0.2h37.2c0.2,0.1,0.5,0.2,0.7,0.3
			c3.2,1.1,6.3,2.4,9.3,4.1h-5.2c-2.5,0-5,1.1-6.7,3c-1.8,2.1-2.7,4.8-2.4,7.6l4.2,39.5l0,0.2l4.2,40.1c0.5,4.9,4.5,8.6,9.2,8.6
			h35.7c4.7,0,8.6-3.6,9.2-8.5l1.8-15.7c3.1-0.1,5.7-1.3,7.8-3.3C241,266.2,240.9,257.9,240.9,247.5z M219.5,225
			c-2.8,0.3-5.1,1.4-6.9,3.3c-0.2,0.2-0.3,0.4-0.5,0.6c-1.6,2-2.4,4.6-2.2,7.3c0.1,1.7,0.6,3.3,1.5,4.6c-0.5,1.3-0.8,2.7-0.8,4.2
			c0,2.1,0.5,3.9,1.5,5.5c-0.3,1-0.5,2.1-0.5,3.2c0,2.1,0.6,4.1,1.8,5.8c-0.3,1-0.5,2.1-0.5,3.2c0,3.3,1.4,6.3,3.7,8.3
			c1,0.9,2.2,1.6,3.5,2.1l-1.8,16c-0.1,0.7-0.5,1.2-1,1.2h-35.7c-0.5,0-0.9-0.5-1-1.2l-2.3-21.6h7.1c2.1,0,3.7-1.7,3.7-3.7
			s-1.7-3.7-3.7-3.7h-7.9l-0.7-7h9.3c2.1,0,3.7-1.7,3.7-3.7s-1.7-3.7-3.7-3.7h-10.1l-0.7-7h11.5c2.1,0,3.7-1.7,3.7-3.7
			s-1.7-3.7-3.7-3.7h-12.3l-0.7-7h13.7c1.7,0,3.1-1.2,3.6-2.7c0.1-0.3,0.1-0.7,0.1-1c0-1.8-1.3-3.3-3-3.6c-0.2,0-0.5-0.1-0.7-0.1
			H173l-0.8-7.6c-0.1-0.7,0.2-1.1,0.4-1.3c0.2-0.2,0.4-0.3,0.6-0.3H188h1.3h4.9h0h5h0h1.3h4.9h21.2c0.2,0,0.4,0.1,0.6,0.3
			c0.1,0.2,0.4,0.6,0.4,1.3l-1.8,15.4C223.5,224.6,221.4,224.8,219.5,225z M198.8,170.4c0.1,0.2,0.2,0.3,0.3,0.5
			c0,0.1,0,0.2,0.1,0.2c0,0.2,0.1,0.3,0.1,0.5c0,0.1,0,0.2,0,0.3l0,0.2l0,0.2c0,0.1,0,0.2,0,0.2v26.9h-5v-26.3l-4.7-3.8l-3.5-2.8
			l-3.6-2.8l-9-7.2l-0.1,0c-0.8-0.5-1.2-1.4-1.1-2.3c0-0.4,0.2-0.8,0.4-1.2c0.1-0.1,0.1-0.2,0.2-0.2c0.1-0.2,0.3-0.3,0.5-0.4
			c0.2-0.1,0.3-0.2,0.5-0.3c0.1,0,0.1-0.1,0.2-0.1c0.2-0.1,0.4-0.1,0.7-0.1c0.1,0,0.2,0,0.4,0c0.2,0,0.3,0.1,0.5,0.1
			c0.1,0,0.2,0.1,0.2,0.1c0.1,0,0.2,0.1,0.2,0.1l11,8.7l3.4,2.7l3.4,2.6l4.1,3.3l0,0l0,0C198.4,169.9,198.6,170.1,198.8,170.4z
			 M124.5,165.3c-3.9-1.5-10.9-5.6-14.5-11c-0.4-0.8-1.9-4.4-3.1-7.4c-0.4-1-1.2-1.9-2.3-2.3c-1-0.4-2.2-0.4-3.2,0.1
			c0,0-0.5,0.2-1.2,0.5c-1.2,0.4-3.1,0.9-4.9,0.8c-2.7,0-4.8-0.8-6.2-2.4c-1.7-1.8-2.6-4.6-2.4-7.9c0.2-5.2,3.7-8.9,8.6-8.9
			c1.6,0,3.2,0.5,4.6,1.4c1,0.6,2.2,0.8,3.3,0.5c0.3-0.1,0.5-0.2,0.7-0.3c0.8-0.4,1.4-1,1.9-1.8l2.2-4.1l15.4-29.1H201v9.7v25.1
			c0,8.9-1.2,20.4-9.1,28.8l-12-9.4c-0.1-0.1-0.3-0.2-0.5-0.3c-1.4-0.9-3-1.4-4.7-1.4c-2.9,0-5.5,1.4-7.2,3.8
			c-2.7,3.9-1.7,9.3,2.1,12l6.2,4.9c-1.8,0.9-3.7,2.2-5.2,4.3c-2.8,3.8-3.8,9-2.9,16h-32.3c0-0.4,0-0.8,0-1.2
			c0-3.6,0.1-7.3-1.2-10.9C132.7,170.3,129.4,167.1,124.5,165.3z M171.8,186.8C171.8,186.8,171.8,186.8,171.8,186.8L171.8,186.8
			C171.8,186.8,171.8,186.8,171.8,186.8z M171.2,186.7c0.1,0,0.2,0,0.3,0C171.4,186.7,171.3,186.7,171.2,186.7z M176.4,189.2
			c0,0-0.1,0-0.1,0c-0.1-0.7-0.2-1.6-0.4-2.7c-0.7-5.1-0.3-8.8,1.3-10.9c1.2-1.6,3-2.3,5-3l0.1,0c0.3-0.1,0.6-0.2,0.9-0.3l0.1,0.1
			l4.7,3.8v19.6C184.4,193.1,180.5,191,176.4,189.2z M234.7,250.7c0,0.4,0,0.7,0,1.1c0,0.4,0,0.7,0,1.1c0,0.5,0,1.1,0,1.6
			c0,0.5,0,1-0.1,1.5c0,0.3,0,0.7-0.1,1c0,0.3,0,0.6-0.1,0.9c0,0.2,0,0.3,0,0.5c0,0.3-0.1,0.6-0.1,0.9c0,0.1,0,0.3-0.1,0.4
			c-0.1,0.4-0.1,0.8-0.2,1.2c0,0.2-0.1,0.3-0.1,0.5c0,0.3-0.1,0.5-0.2,0.8c0,0.2-0.1,0.3-0.1,0.4c-0.1,0.2-0.1,0.4-0.2,0.6
			c0,0.1-0.1,0.2-0.1,0.3c-0.1,0.2-0.2,0.4-0.2,0.6c-0.1,0.1-0.1,0.3-0.2,0.4c-0.1,0.3-0.2,0.5-0.4,0.8c-0.1,0.2-0.2,0.3-0.3,0.5
			c-0.2,0.2-0.4,0.5-0.6,0.7c-0.3,0.3-0.6,0.5-0.9,0.7c-0.2,0.2-0.5,0.3-0.8,0.4c-0.2,0.1-0.4,0.1-0.6,0.2c-0.1,0-0.2,0.1-0.3,0.1
			c-0.1,0-0.2,0-0.3,0.1c-0.2,0-0.4,0.1-0.6,0.1c-0.2,0-0.5,0-0.7,0c0,0,0,0,0,0c0,0,0,0,0,0c0,0,0,0-0.1,0c0,0,0,0,0,0c0,0,0,0,0,0
			c-0.1,0-0.1,0-0.3,0c0,0,0,0,0,0c-0.1,0-0.1,0-0.2,0c0,0,0,0,0,0c-0.1,0-0.1,0-0.2,0c0,0,0,0,0,0c-0.1,0-0.1,0-0.2,0c0,0,0,0,0,0
			c-0.1,0-0.2,0-0.3,0c0,0,0,0,0,0c-0.1,0-0.2,0-0.3,0c0,0,0,0,0,0c-0.1,0-0.2,0-0.3,0c0,0,0,0,0,0c-0.1,0-0.2,0-0.3,0
			c0,0,0,0-0.1,0c-0.1,0-0.2,0-0.3,0c0,0,0,0,0,0c0,0-0.1,0-0.1,0c-0.1,0-0.1,0-0.2,0c0,0,0,0,0,0c-0.1,0-0.2,0-0.4-0.1c0,0,0,0,0,0
			c-0.1,0-0.2,0-0.4-0.1c0,0,0,0-0.1,0c-0.1,0-0.2-0.1-0.4-0.1c0,0,0,0-0.1,0c-0.1,0-0.2-0.1-0.4-0.1c0,0,0,0,0,0
			c-0.1,0-0.3-0.1-0.4-0.1c0,0,0,0,0,0c0,0-0.1,0-0.1,0c-0.4-0.1-0.7-0.3-1.1-0.5c-0.2-0.1-0.4-0.2-0.5-0.3c-0.4-0.3-0.7-0.6-1-1
			c-0.1-0.2-0.3-0.4-0.4-0.6c-0.3-0.7-0.5-1.4-0.5-2.2c0-0.1,0-0.2,0-0.3c0,0,0-0.1,0-0.1c0-0.1,0-0.1,0-0.2c0,0,0-0.1,0-0.1
			c0-0.1,0-0.1,0-0.2h2.3h3.9c0.1,0,0.2,0,0.3,0c1.5-0.1,2.6-1.4,2.6-2.9c0-1.3-0.8-2.3-2-2.7c-0.3-0.1-0.6-0.2-0.9-0.2h-3.2h-3.7
			c-0.4-0.6-0.7-1.4-0.7-2.3c0-0.1,0-0.2,0-0.4c0,0,0-0.1,0-0.1c0-0.1,0-0.2,0-0.3c0,0,0-0.1,0-0.1c0-0.1,0-0.1,0-0.2h4.6h2.7
			c0.5,0,1.1-0.2,1.5-0.4c0.8-0.5,1.4-1.4,1.4-2.5c0-0.8-0.3-1.5-0.9-2.1c-0.5-0.5-1.2-0.8-2-0.8h-2h-5.9c0,0-0.1,0-0.1,0
			c0-0.1-0.1-0.1-0.1-0.2c0,0,0-0.1,0-0.1c0-0.1-0.1-0.2-0.1-0.3c0,0,0,0,0,0c0-0.1-0.1-0.2-0.1-0.4c0,0,0-0.1,0-0.1
			c0-0.1,0-0.2,0-0.3c0,0,0-0.1,0-0.1c0-0.1,0-0.3,0-0.4c0,0,0,0,0,0c0-0.2,0-0.3,0-0.4c0,0,0-0.1,0-0.1c0-0.1,0-0.2,0-0.3
			c0,0,0-0.1,0-0.1c0-0.1,0-0.2,0.1-0.3c0,0,0-0.1,0-0.1c0-0.1,0.1-0.2,0.1-0.3c0,0,0,0,0-0.1c0,0,0-0.1,0-0.1c0.1,0,0.1,0,0.2,0
			h6.3h1.6c1.4,0,2.5-1,2.8-2.2c0-0.2,0.1-0.4,0.1-0.6c0,0,0,0,0,0c0-1.6-1.3-2.9-2.9-2.9h-0.9h-7c-0.2,0-0.5,0-0.7,0.1c0,0,0,0,0,0
			c0-0.1-0.1-0.1-0.1-0.2c0,0,0-0.1-0.1-0.1c0-0.1-0.1-0.1-0.1-0.2c0,0,0-0.1,0-0.1c0-0.1,0-0.1-0.1-0.2c0,0,0-0.1,0-0.1
			c0-0.1,0-0.2-0.1-0.2c0,0,0-0.1,0-0.1c0-0.1,0-0.3,0-0.4c0-0.2,0-0.3,0-0.5c0-0.4,0.1-0.8,0.2-1.1c0-0.2,0.1-0.3,0.2-0.5
			c0.1-0.2,0.1-0.3,0.2-0.5c0.1-0.1,0.1-0.2,0.2-0.3c0.2-0.2,0.3-0.4,0.5-0.6c0.2-0.2,0.4-0.3,0.7-0.5c0.2-0.1,0.5-0.3,0.8-0.3
			c0.2-0.1,0.4-0.1,0.6-0.2c0.2,0,0.5-0.1,0.7-0.1c0.1,0,0.3,0,0.4,0c0,0,0.1,0,0.1,0c0.1,0,0.2,0,0.3,0c0,0,0.1,0,0.1,0
			c0.1,0,0.3,0,0.4,0c0,0,0.1,0,0.1,0c0.1,0,0.2,0,0.3,0c0,0,0.1,0,0.1,0c0.1,0,0.3,0,0.4,0c0,0,0,0,0,0c0.1,0,0.2,0,0.4,0
			c0,0,0.1,0,0.1,0c0.1,0,0.2,0,0.3,0c0,0,0,0,0.1,0c0.1,0,0.2,0,0.4,0c0,0,0.1,0,0.1,0c0.1,0,0.2,0,0.3,0c0,0,0.1,0,0.1,0
			c0.1,0,0.2,0,0.3,0c0,0,0,0,0,0c0.1,0,0.2,0,0.3,0c0,0,0.1,0,0.1,0c0.1,0,0.1,0,0.2,0c0,0,0,0,0.1,0c0,0,0,0,0.1,0
			c0.1,0,0.2,0,0.3,0c0,0,0.1,0,0.1,0c0.1,0,0.2,0,0.2,0c0,0,0.1,0,0.1,0c0.1,0,0.2,0,0.3,0c0,0,0,0,0.1,0c0.1,0,0.1,0,0.2,0
			c0,0,0.1,0,0.1,0c0,0,0.1,0,0.1,0c0,0,0.1,0,0.1,0c0,0,0.1,0,0.1,0c0,0,0.1,0,0.1,0c0,0,0.1,0,0.1,0c0.1,0,0.2,0,0.2,0
			c0,0,0,0,0,0c0.1,0,0.3,0,0.4,0c0,0,0,0,0,0c0.1,0,0.1,0,0.1,0c0,0,0,0,0,0c0,0,0.1,0,0.1,0c0.1,0,0.3,0,0.4,0c0.1,0,0.1,0,0.2,0
			c0.2,0,0.4,0.1,0.6,0.2c0.1,0,0.2,0.1,0.2,0.1c0.1,0,0.2,0.1,0.2,0.1c0.1,0.1,0.3,0.1,0.4,0.2s0.3,0.2,0.4,0.3
			c0,0,0.1,0.1,0.1,0.1c0.1,0.1,0.2,0.2,0.3,0.2c0.1,0.1,0.2,0.2,0.3,0.3c0.1,0.1,0.3,0.3,0.4,0.5c0,0.1,0.1,0.1,0.1,0.2
			c0.1,0.2,0.3,0.4,0.4,0.6c0,0.1,0.1,0.1,0.1,0.2c0.2,0.3,0.4,0.6,0.5,1c0,0,0,0,0,0c0.2,0.3,0.3,0.7,0.5,1.1
			c0.1,0.2,0.2,0.4,0.2,0.6c0.1,0.2,0.1,0.5,0.2,0.7c0.1,0.2,0.1,0.5,0.2,0.7c0.4,1.8,0.7,4.1,0.7,6.9c0,1,0,2,0,3
			c0,0.4,0,0.8,0,1.2c0,0.4,0,0.8,0,1.1C234.7,250.4,234.7,250.5,234.7,250.7z"/>
	</g>
</g>
</svg>
